<?xml version="1.0" encoding="UTF-8"?>
<svg width="196px" height="58px" viewBox="0 0 196 58" version="1.1" xmlns="http://www.w3.org/2000/svg" xmlns:xlink="http://www.w3.org/1999/xlink">
    <!-- Generator: Sketch 46.2 (44496) - http://www.bohemiancoding.com/sketch -->
    <title>Group 4</title>
    <desc>Created with Sketch.</desc>
    <defs></defs>
    <g id="Page-1" stroke="none" stroke-width="1" fill="none" fill-rule="evenodd">
        <g id="Logo" transform="translate(-415.000000, -270.000000)">
            <g id="Group-4" transform="translate(413.000000, 268.000000)">
                <g id="Group-3">
                    <g id="Logtipo" transform="translate(34.791772, 31.757218) rotate(-20.000000) translate(-34.791772, -31.757218) translate(6.791772, 8.257218)">
                        <path d="M55.3283808,40.883639 C54.1271742,40.883639 53.1369362,41.6737955 52.9998365,42.692352 C46.3281016,42.0244735 41.5595006,41.7917439 38.6940335,41.9941632 C31.2610771,42.5192344 25.6679641,46.4329752 19.306223,46.8000312 C14.9714585,47.050136 9.37632674,46.0162932 2.52082787,43.6985028 C2.62915102,43.4624537 2.68875529,43.2047041 2.68875529,42.9347765 C2.68875529,41.8019645 1.63897519,40.883639 0.34400582,40.883639 L0.34400582,39.1401721 C1.63897519,39.1401721 2.68875529,38.2218465 2.68875529,37.0890346 C2.68875529,35.9562226 1.63897519,35.0378971 0.34400582,35.0378971 L0.34400582,33.2944302 C1.63897519,33.2944302 2.68875529,32.3761046 2.68875529,31.2432927 C2.68875529,30.1104807 1.63897519,29.1921551 0.34400582,29.1921551 L0.34400582,27.4486882 C1.63897519,27.4486882 2.68875529,26.5303627 2.68875529,25.3975507 C2.68875529,24.2647388 1.63897519,23.3464132 0.34400582,23.3464132 L0.34400582,21.6029463 C1.63897519,21.6029463 2.68875529,20.6846208 2.68875529,19.5518088 C2.68875529,18.4189968 1.63897519,17.5006713 0.34400582,17.5006713 L0.34400582,15.7572044 C1.63897519,15.7572044 2.68875529,14.8388789 2.68875529,13.7060669 C2.68875529,12.5732549 1.63897519,11.6549294 0.34400582,11.6549294 L0.34400582,9.9114625 C1.63897519,9.9114625 2.68875529,8.99313695 2.68875529,7.86032498 C2.68875529,6.72751301 1.63897519,5.80918747 0.34400582,5.80918747 L0.34400582,4.06572058 C1.22271677,4.06572058 1.98853276,3.64288673 2.39007149,3.01712297 C5.46834641,4.1701222 10.0145253,4.63126039 16.0286081,4.40053755 C24.3679055,4.08061072 30.1394523,0.239969026 39.6901536,0.0681682082 C43.1141181,0.00657692972 47.5649455,0.50229092 53.0426356,1.55531018 C53.0040257,1.7029637 52.9836314,1.85668994 52.9836314,2.01458307 C52.9836314,3.14739503 54.0334114,4.06572058 55.3283808,4.06572058 L55.3283808,5.80918747 C54.0334114,5.80918747 52.9836314,6.72751301 52.9836314,7.86032498 C52.9836314,8.99313695 54.0334114,9.9114625 55.3283808,9.9114625 L55.3283808,11.6549294 C54.0334114,11.6549294 52.9836314,12.5732549 52.9836314,13.7060669 C52.9836314,14.8388789 54.0334114,15.7572044 55.3283808,15.7572044 L55.3283808,17.5006713 C54.0334114,17.5006713 52.9836314,18.4189968 52.9836314,19.5518088 C52.9836314,20.6846208 54.0334114,21.6029463 55.3283808,21.6029463 L55.3283808,23.3464132 C54.0334114,23.3464132 52.9836314,24.2647388 52.9836314,25.3975507 C52.9836314,26.5303627 54.0334114,27.4486882 55.3283808,27.4486882 L55.3283808,29.1921551 C54.0334114,29.1921551 52.9836314,30.1104807 52.9836314,31.2432927 C52.9836314,32.3761046 54.0334114,33.2944302 55.3283808,33.2944302 L55.3283808,35.0378971 C54.0334114,35.0378971 52.9836314,35.9562226 52.9836314,37.0890346 C52.9836314,38.2218465 54.0334114,39.1401721 55.3283808,39.1401721 L55.3283808,40.883639 Z M41.2381716,33.4316757 L43.8767008,30.2871991 L30.3609741,19.5189748 L33.0169434,16.3537139 L33.6261123,16.8648673 L36.2820816,13.6996063 L29.146103,7.71180932 L26.4901337,10.8770702 L27.0993026,11.3882236 L19.7005311,20.2057362 L19.0913622,19.6945828 L16.4353929,22.8598437 L23.5713715,28.8476407 L26.2273408,25.6823798 L25.6181719,25.1712264 L28.3781372,21.8820278 L41.2381716,33.4316757 Z M10.6737254,33.1388969 L22.5456674,37.4599304 L23.729737,34.2067259 L22.1108358,33.6174941 L22.5055257,32.5330926 L13.871386,29.3905227 L13.4766962,30.4749242 L11.857795,29.8856924 L10.6737254,33.1388969 Z" id="ticket" fill="#2FAE65"></path>
                        <g id="mask" transform="translate(6.326491, 5.805568)">
                            <g id="Group" transform="translate(20.664900, 19.015480) rotate(8.000000) translate(-20.664900, -19.015480) translate(2.336775, 2.881026)">
                                <g id="Group-2" transform="translate(0.009419, 0.125274)"></g>
                            </g>
                        </g>
                    </g>
                </g>
                <path d="M86.779789,22.1714972 C87.6597844,22.4694599 88.4929591,22.8977748 89.279338,23.4564549 L86.9763827,26.4453782 C85.8904309,25.3466407 84.8091761,24.5365668 83.7325859,24.0151321 C82.6559958,23.4936974 81.2751726,23.2329839 79.5900749,23.2329839 C77.9237005,23.2329839 76.4633044,22.8465694 75.2088428,22.0737287 C73.9543812,21.3008879 72.9854646,20.1695778 72.3020639,18.6797643 C71.6186632,17.1899509 71.2769679,15.3835792 71.2769679,13.260595 C71.2769679,11.1748562 71.6233439,9.37314003 72.3161063,7.85539258 C73.0088687,6.33764512 73.9965083,5.17840141 75.2790549,4.37762668 C76.5616015,3.57685195 78.0641243,3.17647059 79.7866686,3.17647059 C81.5279362,3.17647059 83.0351399,3.56754075 84.3083248,4.34969282 C85.5815097,5.13184488 86.5597878,6.2771218 87.2431885,7.78555792 C87.9265893,9.29399404 88.2682845,11.109677 88.2682845,13.2326611 C88.2682845,15.4487586 87.8704202,17.2318524 87.0746796,18.5819958 C86.278939,19.9321393 85.1695997,20.9796486 83.7466284,21.7245554 C84.8887501,21.7245554 85.8997935,21.8735345 86.779789,22.1714972 Z M79.7866686,20.4954654 C81.2845332,20.4954654 82.4219571,19.9181714 83.1989743,18.7635659 C83.9759916,17.6089605 84.3644944,15.765344 84.3644944,13.2326611 C84.3644944,10.7186009 83.9759916,8.88429562 83.1989743,7.7296902 C82.4219571,6.57508477 81.2845332,5.99779071 79.7866686,5.99779071 C78.288804,5.99779071 77.1466994,6.57974036 76.3603205,7.74365713 C75.5739416,8.90757389 75.180758,10.7465348 75.180758,13.260595 C75.180758,18.0838661 76.7160462,20.4954654 79.7866686,20.4954654 Z M105.02088,20.0624905 C104.468543,21.077426 103.644729,21.8735331 102.549416,22.4508358 C101.454102,23.0281385 100.13881,23.3167855 98.6034985,23.3167855 C96.2818084,23.3167855 94.5031209,22.7069023 93.2673826,21.4871175 C92.0316443,20.2673328 91.4137844,18.6332181 91.4137844,16.5847246 L91.4137844,3.59547853 L95.1209808,3.59547853 L95.1209808,16.3891876 C95.1209808,17.7486424 95.4065069,18.7635626 95.9775678,19.4339786 C96.5486287,20.1043947 97.4239302,20.4395977 98.6034985,20.4395977 C99.8017902,20.4395977 100.686453,20.1043947 101.257514,19.4339786 C101.828575,18.7635626 102.114101,17.7486424 102.114101,16.3891876 L102.114101,3.59547853 L105.849382,3.59547853 L105.849382,16.5847246 C105.849382,17.8883114 105.573218,19.0475551 105.02088,20.0624905 Z M119.639029,22.8977776 L112.982927,7.28274839 C113.151437,8.66082584 113.277817,9.90852589 113.362072,11.025886 C113.446327,12.1432461 113.488454,13.4747469 113.488454,15.0204283 L113.488454,22.8977776 L110.118275,22.8977776 L110.118275,3.59547853 L114.80844,3.59547853 L121.576882,19.2384416 C121.464542,18.4935349 121.352204,17.5112039 121.239864,16.2914191 C121.127524,15.0716343 121.071355,13.8565234 121.071355,12.64605 L121.071355,3.59547853 L124.441534,3.59547853 L124.441534,22.8977776 L119.639029,22.8977776 Z M128.991275,22.8977776 L128.991275,3.59547853 L132.726556,3.59547853 L132.726556,22.8977776 L128.991275,22.8977776 Z M140.983493,6.33299706 L140.983493,11.7242326 L147.218323,11.7242326 L147.218323,14.4617511 L140.983493,14.4617511 L140.983493,20.1323252 L148.650649,20.1323252 L148.650649,22.8977776 L137.276297,22.8977776 L137.276297,3.59547853 L148.53831,3.59547853 L148.145122,6.33299706 L140.983493,6.33299706 Z M163.647943,19.8809204 L163.226671,22.8977776 L152.161252,22.8977776 L152.161252,3.59547853 L155.868448,3.59547853 L155.868448,19.8809204 L163.647943,19.8809204 Z M169.012144,18.4283596 L167.804497,22.8977776 L163.956876,22.8977776 L169.995113,3.59547853 L174.572939,3.59547853 L180.58309,22.8977776 L176.651215,22.8977776 L175.443568,18.4283596 L169.012144,18.4283596 Z M172.213814,6.41679865 L169.74235,15.6349733 L174.713363,15.6349733 L172.213814,6.41679865 Z" id="QUNIELA" fill="#161616"></path>
                <path d="M96.2470289,48.4544842 C95.2751714,49.4985494 93.8821965,50.3162341 92.0680625,50.907563 L91.0962099,48.2743146 C91.9107191,47.9601711 92.5262196,47.6044551 92.9427299,47.207156 C93.3592403,46.8098569 93.6415375,46.3386488 93.7896301,45.7935174 C93.9377226,45.2483861 94.0117678,44.5415738 94.0117678,43.6730595 L94.0117678,27.4577929 L97.7048078,27.4577929 L97.7048078,43.8116515 C97.7048078,45.8628237 97.2188864,47.4104191 96.2470289,48.4544842 Z M115.267573,43.7977923 C114.721482,44.8048994 113.906985,45.594866 112.824058,46.1677159 C111.741131,46.7405658 110.440713,47.0269864 108.922764,47.0269864 C106.627329,47.0269864 104.868756,46.4218073 103.646993,45.2114309 C102.425229,44.0010545 101.814356,42.3795441 101.814356,40.3468509 L101.814356,27.4577929 L105.479629,27.4577929 L105.479629,40.1528221 C105.479629,41.5017912 105.761926,42.5088832 106.326529,43.1741282 C106.891132,43.8393732 107.756535,44.1719907 108.922764,44.1719907 C110.107505,44.1719907 110.982163,43.8393732 111.546766,43.1741282 C112.111369,42.5088832 112.393666,41.5017912 112.393666,40.1528221 L112.393666,27.4577929 L116.086706,27.4577929 L116.086706,40.3468509 C116.086706,41.6403829 115.813665,42.7906852 115.267573,43.7977923 Z M132.177809,29.4812364 C133.964176,30.8302055 134.857346,33.3155976 134.857346,36.9374872 C134.857346,40.4854607 133.978059,42.9847118 132.21946,44.4353156 C130.460861,45.8859193 128.23025,46.6112103 125.52756,46.6112103 L120.307323,46.6112103 L120.307323,27.4577929 L125.027751,27.4577929 C128.008114,27.4577929 130.391443,28.1322673 132.177809,29.4812364 Z M123.972596,43.8670883 L125.777465,43.8670883 C127.406484,43.8670883 128.683763,43.3635423 129.609342,42.3564353 C130.53492,41.3493282 130.997702,39.5430302 130.997702,36.9374872 C130.997702,35.1265424 130.761683,33.726777 130.289638,32.7381489 C129.817593,31.7495209 129.197465,31.0796661 128.429235,30.7285646 C127.661005,30.3774631 126.740068,30.2019149 125.666397,30.2019149 L123.972596,30.2019149 L123.972596,43.8670883 Z M138.300481,46.6112103 L138.300481,27.4577929 L141.993521,27.4577929 L141.993521,46.6112103 L138.300481,46.6112103 Z M156.890633,27.5409481 C157.769933,27.8735706 158.616825,28.3817363 159.431334,29.0654603 L157.543163,31.2552143 C156.45098,30.3312628 155.266258,29.8692941 153.988959,29.8692941 C152.563568,29.8692941 151.425124,30.4421354 150.573591,31.5878351 C149.722059,32.7335349 149.296299,34.5352132 149.296299,36.992924 C149.296299,39.4136768 149.722059,41.201496 150.573591,42.3564353 C151.425124,43.5113745 152.582079,44.0888355 154.044494,44.0888355 C154.784956,44.0888355 155.442107,43.9502449 156.015966,43.6730595 C156.589825,43.395874 157.228464,42.9985809 157.931904,42.4811681 L159.653472,44.6986404 C159.005567,45.3638855 158.186442,45.918248 157.196073,46.3617447 C156.205704,46.8052414 155.099654,47.0269864 153.87789,47.0269864 C152.211849,47.0269864 150.740201,46.6389326 149.462903,45.8628134 C148.185604,45.0866942 147.19525,43.9456313 146.49181,42.4395905 C145.788371,40.9335496 145.436656,39.1180123 145.436656,36.992924 C145.436656,34.9047938 145.802254,33.1123549 146.533461,31.6155535 C147.264668,30.1187522 148.25965,28.982309 149.518437,28.2061898 C150.777224,27.4300706 152.193338,27.0420168 153.766821,27.0420168 C154.970074,27.0420168 156.011334,27.2083256 156.890633,27.5409481 Z M162.26359,46.6112103 L162.26359,27.4577929 L165.95663,27.4577929 L165.95663,46.6112103 L162.26359,46.6112103 Z M173.065038,42.1762656 L171.871048,46.6112103 L168.066939,46.6112103 L174.036891,27.4577929 L178.562947,27.4577929 L184.505132,46.6112103 L180.617721,46.6112103 L179.423731,42.1762656 L173.065038,42.1762656 Z M176.230501,30.2573517 L173.786986,39.4044252 L178.701783,39.4044252 L176.230501,30.2573517 Z M198,43.6176227 L197.583492,46.6112103 L186.643208,46.6112103 L186.643208,27.4577929 L190.308481,27.4577929 L190.308481,43.6176227 L198,43.6176227 Z" id="JUDICIAL" fill="#161616"></path>
            </g>
        </g>
    </g>
</svg>