<?xml version="1.0" encoding="UTF-8"?>
<svg width="935px" height="290px" viewBox="0 0 935 290" version="1.1" xmlns="http://www.w3.org/2000/svg" xmlns:xlink="http://www.w3.org/1999/xlink">
    <!-- Generator: Sketch 46.2 (44496) - http://www.bohemiancoding.com/sketch -->
    <title>Quiniela Judicial</title>
    <desc>Created with Sketch.</desc>
    <defs>
        <path d="M103.894664,127.128512 L28.3108972,149.7723 C7.62270967,155.621709 1.85820585,167.352889 11.0173857,184.965839 C15.5488428,194.484734 28.5718144,196.082257 50.0863006,189.758407 L142.964686,165.131979 C197.083517,153.653153 222.722371,133.786001 219.881247,105.530524 C217.563175,82.4768983 201.028129,72.4594957 170.276108,75.4783168 L170.276113,75.4783672 C169.979278,75.5075065 169.715024,75.2904963 169.685884,74.9936614 C169.668988,74.8215405 169.735549,74.6517389 169.864911,74.5369504 C185.057224,61.0562247 188.557798,49.9748024 180.366632,41.2926836 C172.570476,33.0292503 156.01478,38.4623414 130.699544,57.5919569 L130.699564,57.5919846 C130.22367,57.951597 129.546358,57.8573319 129.186746,57.3814378 C128.903394,57.0064636 128.895067,56.4912933 129.166151,56.1073568 C145.076885,33.5729676 147.481457,17.5690522 136.379869,8.09561052 C124.268201,-2.23977299 111.063991,-2.67903884 96.767238,6.77781296 L15.0475753,53.5824374 C-0.280877179,62.2658758 -3.89840028,72.7793631 4.19500597,85.1228994 C12.2884122,97.4664357 23.9882622,100.262839 39.294556,93.5121086 L67.0899157,83.6645828 L67.0899157,83.6645828 C67.652141,83.4653939 68.2693891,83.759693 68.468578,84.3219182 C68.6458157,84.8221845 68.4332988,85.3770897 67.9672335,85.6309846 L56.3287389,91.9711993 C46.3919295,99.2040657 44.3111167,107.713625 50.0863006,117.499876 C55.8614845,127.286127 65.2688283,131.410527 78.308332,129.873076 L103.38003,125.033517 L103.38003,125.033517 C103.965686,124.920468 104.532098,125.303593 104.645147,125.889249 C104.750251,126.43375 104.425889,126.969364 103.894664,127.128512 Z" id="path-1"></path>
    </defs>
    <g id="Page-1" stroke="none" stroke-width="1" fill="none" fill-rule="evenodd">
        <g id="Logo" transform="translate(-48.000000, -153.000000)">
            <g id="Quiniela-Judicial" transform="translate(40.000000, 142.000000)">
                <g id="Logtipo" transform="translate(161.500000, 158.000000) rotate(-20.000000) translate(-161.500000, -158.000000) translate(35.000000, 36.000000)">
                    <path d="M253,215.348754 L253,206.15808 C247.041448,206.15808 242.211087,201.317133 242.211087,195.345522 C242.211087,189.373912 247.041448,184.532965 253,184.532965 L253,175.34229 C247.041448,175.34229 242.211087,170.501343 242.211087,164.529733 C242.211087,158.558122 247.041448,153.717175 253,153.717175 L253,144.526501 C247.041448,144.526501 242.211087,139.685554 242.211087,133.713943 C242.211087,127.742332 247.041448,122.901385 253,122.901385 L253,113.710711 C247.041448,113.710711 242.211087,108.869764 242.211087,102.898153 C242.211087,96.9265425 247.041448,92.0855955 253,92.0855955 L253,82.8949214 C247.041448,82.8949214 242.211087,78.0539744 242.211087,72.0823636 C242.211087,66.1107529 247.041448,61.2698058 253,61.2698058 L253,52.0791317 C247.041448,52.0791317 242.211087,47.2381847 242.211087,41.2665739 C242.211087,35.2949632 247.041448,30.4540161 253,30.4540161 L253,21.263342 C247.041448,21.263342 242.211087,16.422395 242.211087,10.4507842 C242.211087,9.61845169 242.304928,8.8080848 242.482584,8.02973026 C217.278049,2.47874624 196.798425,-0.13440677 181.043713,0.190271246 C137.098002,1.09591812 111.428676,20.331621 73.0180171,20.3642153 C41.3805213,20.3910621 20.0010413,19.1343443 8.87957717,16.5940618 C6.93265253,19.41517 3.68168614,21.263342 0,21.263342 L-9.32864896e-14,30.4540161 C5.95855188,30.4540161 10.7889126,35.2949632 10.7889126,41.2665739 C10.7889126,47.2381847 5.95855188,52.0791317 0,52.0791317 L-9.32864896e-14,61.2698058 C5.95855188,61.2698058 10.7889126,66.1107529 10.7889126,72.0823636 C10.7889126,78.0539744 5.95855188,82.8949214 0,82.8949214 L-9.32864896e-14,92.0855955 C5.95855188,92.0855955 10.7889126,96.9265425 10.7889126,102.898153 C10.7889126,108.869764 5.95855188,113.710711 0,113.710711 L-9.32864896e-14,122.901385 C5.95855188,122.901385 10.7889126,127.742332 10.7889126,133.713943 C10.7889126,139.685554 5.95855188,144.526501 0,144.526501 L-9.32864896e-14,153.717175 C5.95855188,153.717175 10.7889126,158.558122 10.7889126,164.529733 C10.7889126,170.501343 5.95855188,175.34229 0,175.34229 L-9.32864896e-14,184.532965 C5.95855188,184.532965 10.7889126,189.373912 10.7889126,195.345522 C10.7889126,201.317133 5.95855188,206.15808 0,206.15808 L-9.32864896e-14,215.348754 C5.95855188,215.348754 10.7889126,220.189701 10.7889126,226.161312 C10.7889126,227.8391 10.4076094,229.427634 9.72711232,230.844625 C31.8105413,240.396783 57.934614,244.73953 88.0993304,243.872865 C117.426478,243.030264 142.258942,223.970785 176.460258,221.202876 C189.645153,220.135823 211.586951,221.362656 242.285652,224.883373 C242.91649,219.514059 247.472879,215.348754 253,215.348754 Z" id="ticket" fill="#35CA66"></path>
                    <g id="mask" transform="translate(15.643923, 20.722714)">
                        <mask id="mask-2" fill="white">
                            <use xlink:href="#path-1"></use>
                        </mask>
                        <use id="Mask" fill="#3EDE76" xlink:href="#path-1"></use>
                        <path d="M131.737479,162.658845 L140.420959,162.658845 L140.420959,162.658845 C143.504696,162.658845 146.004559,160.158983 146.004559,157.075246 C146.004559,157.028019 146.00396,156.980794 146.002762,156.933582 L143.990294,77.6385795 L164.308773,77.6385795 L164.308773,79.3187709 L164.308773,79.3187709 C164.308773,80.5522657 165.308718,81.5522108 166.542213,81.5522108 L182.393812,81.5522108 L182.393812,81.5522108 C183.627307,81.5522108 184.627252,80.5522657 184.627252,79.3187709 L184.627252,37.9402557 L184.627252,37.9402557 C184.627252,36.7067609 183.627307,35.7068158 182.393812,35.7068158 L166.542213,35.7068158 L166.542213,35.7068158 C165.308718,35.7068158 164.308773,36.7067609 164.308773,37.9402557 L164.308773,39.6204471 L107.707296,39.6204471 L107.707296,37.9402557 L107.707296,37.9402557 C107.707296,36.7067609 106.707351,35.7068158 105.473857,35.7068158 L89.6222575,35.7068158 L89.6222575,35.7068158 C88.3887628,35.7068158 87.3888177,36.7067609 87.3888177,37.9402557 L87.3888177,79.3187709 L87.3888177,79.3187709 C87.3888177,80.5522657 88.3887628,81.5522108 89.6222575,81.5522108 L105.473857,81.5522108 L105.473857,81.5522108 C106.707351,81.5522108 107.707296,80.5522657 107.707296,79.3187709 L107.707296,77.6385795 L128.821357,77.6385795 L126.157032,156.887633 L126.157032,156.887633 C126.053416,159.969629 128.46787,162.552077 131.549866,162.655692 C131.612382,162.657794 131.674928,162.658845 131.737479,162.658845 Z" id="Path-3" fill="#29292A" mask="url(#mask-2)" transform="translate(136.008035, 99.182831) rotate(-44.000000) translate(-136.008035, -99.182831) "></path>
                        <path d="M32.6536177,162.097256 L95.2382286,162.097256 L95.2382286,162.097256 C96.6029461,162.097256 97.7092683,160.990933 97.7092683,159.626216 L97.7092683,145.660546 L97.7092683,145.660546 C97.7092683,144.295829 96.6029461,143.189506 95.2382286,143.189506 L88.5010833,143.189506 L88.5010833,139.357963 L88.5010833,139.357963 C88.5010833,137.993246 87.3947611,136.886923 86.0300435,136.886923 L41.8618027,136.886923 L41.8618027,136.886923 C40.4970852,136.886923 39.390763,137.993246 39.390763,139.357963 L39.390763,143.189506 L32.6536177,143.189506 L32.6536177,143.189506 C31.2889001,143.189506 30.1825779,144.295829 30.1825779,145.660546 L30.1825779,159.626216 L30.1825779,159.626216 C30.1825779,160.990933 31.2889001,162.097256 32.6536177,162.097256 Z" id="Path-2" fill="#29292A" mask="url(#mask-2)" transform="translate(63.945923, 149.492090) rotate(20.000000) translate(-63.945923, -149.492090) "></path>
                    </g>
                </g>
                <g transform="translate(300.000000, 38.000000)" fill="#29292A">
                    <path d="M57.36,4.32 C62.8800276,7.2000144 67.139985,11.0999754 70.14,16.02 C73.140015,20.9400246 74.7999984,26.4399696 75.12,32.52 C75.2800008,34.7600112 75.36,38.3599752 75.36,43.32 C75.36,48.2000244 75.2800008,51.7199892 75.12,53.88 C74.6399976,62.6000436 71.6800272,69.8399712 66.24,75.6 L75.72,89.28 C75.9600012,89.7600024 76.08,90.1199988 76.08,90.36 L76.08,90.72 C76.08,91.3600032 75.8400024,91.8999978 75.36,92.34 C74.8799976,92.7800022 74.3200032,93 73.68,93 L56.76,93 C55.4799936,93 54.4600038,92.7400026 53.7,92.22 C52.9399962,91.6999974 52.2800028,91.040004 51.72,90.24 L48.36,85.2 C44.5999812,86.000004 41.0400168,86.4 37.68,86.4 C30.079962,86.4 23.5200276,84.9600144 18,82.08 C12.4799724,79.1999856 8.220015,75.3000246 5.22,70.38 C2.219985,65.4599754 0.5600016,59.9600304 0.24,53.88 C0.0799992,49.5599784 0,46.0400136 0,43.32 C0,40.5999864 0.0799992,37.0000224 0.24,32.52 C0.5600016,26.4399696 2.219985,20.9400246 5.22,16.02 C8.220015,11.0999754 12.4799724,7.2000144 18,4.32 C23.5200276,1.4399856 30.079962,0 37.68,0 C45.280038,0 51.8399724,1.4399856 57.36,4.32 Z M48.54,22.98 C46.0199874,20.4599874 42.4000236,19.2 37.68,19.2 C32.9599764,19.2 29.3400126,20.4599874 26.82,22.98 C24.2999874,25.5000126 22.840002,28.8799788 22.44,33.12 C22.1999988,35.7600132 22.08,39.07998 22.08,43.08 C22.08,47.0000196 22.1999988,50.3999856 22.44,53.28 C22.840002,57.5200212 24.2999874,60.8999874 26.82,63.42 C29.3400126,65.9400126 32.9599764,67.2 37.68,67.2 C42.4000236,67.2 46.0199874,65.9400126 48.54,63.42 C51.0600126,60.8999874 52.519998,57.5200212 52.92,53.28 C53.1600012,50.3999856 53.28,47.0000196 53.28,43.08 C53.28,39.07998 53.1600012,35.7600132 52.92,33.12 C52.519998,28.8799788 51.0600126,25.5000126 48.54,22.98 Z" id="Combined-Shape"></path>
                    <path d="M159,1.96 C159.640003,2.6000032 159.96,3.3599956 159.96,4.24 L159.96,52.12 C159.96,59.320036 158.440015,65.4799744 155.4,70.6 C152.359985,75.7200256 148.100027,79.5999868 142.62,82.24 C137.139973,84.8800132 130.760036,86.2 123.48,86.2 C116.119963,86.2 109.700027,84.8800132 104.22,82.24 C98.7399726,79.5999868 94.500015,75.7200256 91.5,70.6 C88.499985,65.4799744 87,59.320036 87,52.12 L87,4.24 C87,3.3599956 87.3199968,2.6000032 87.96,1.96 C88.6000032,1.3199968 89.3599956,1 90.24,1 L105.96,1 C106.840004,1 107.599997,1.3199968 108.24,1.96 C108.880003,2.6000032 109.2,3.3599956 109.2,4.24 L109.2,51.64 C109.2,56.5200244 110.419988,60.2999866 112.86,62.98 C115.300012,65.6600134 118.839977,67 123.48,67 C128.120023,67 131.659988,65.6600134 134.1,62.98 C136.540012,60.2999866 137.76,56.5200244 137.76,51.64 L137.76,4.24 C137.76,3.3599956 138.079997,2.6000032 138.72,1.96 C139.360003,1.3199968 140.119996,1 141,1 L156.72,1 C157.600004,1 158.359997,1.3199968 159,1.96 Z" id="Path"></path>
                    <path d="M174.899941,84.04 C174.259938,83.3999968 173.939941,82.6400044 173.939941,81.76 L173.939941,4.24 C173.939941,3.3599956 174.259938,2.6000032 174.899941,1.96 C175.539945,1.3199968 176.299937,1 177.179941,1 L192.899941,1 C193.779946,1 194.539938,1.3199968 195.179941,1.96 C195.819945,2.6000032 196.139941,3.3599956 196.139941,4.24 L196.139941,81.76 C196.139941,82.6400044 195.819945,83.3999968 195.179941,84.04 C194.539938,84.6800032 193.779946,85 192.899941,85 L177.179941,85 C176.299937,85 175.539945,84.6800032 174.899941,84.04 Z" id="Path"></path>
                    <path d="M262.419941,84.1 C261.539937,83.499997 260.939943,82.8800032 260.619941,82.24 L233.139941,41.2 L233.139941,81.76 C233.139941,82.6400044 232.819945,83.3999968 232.179941,84.04 C231.539938,84.6800032 230.779946,85 229.899941,85 L214.179941,85 C213.299937,85 212.539945,84.6800032 211.899941,84.04 C211.259938,83.3999968 210.939941,82.6400044 210.939941,81.76 L210.939941,4.24 C210.939941,3.3599956 211.259938,2.6000032 211.899941,1.96 C212.539945,1.3199968 213.299937,1 214.179941,1 L226.659941,1 C227.859947,1 228.899937,1.299997 229.779941,1.9 C230.659946,2.500003 231.25994,3.1199968 231.579941,3.76 L259.059941,44.8 L259.059941,4.24 C259.059941,3.3599956 259.379938,2.6000032 260.019941,1.96 C260.659945,1.3199968 261.419937,1 262.299941,1 L278.019941,1 C278.899946,1 279.659938,1.3199968 280.299941,1.96 C280.939945,2.6000032 281.259941,3.3599956 281.259941,4.24 L281.259941,81.76 C281.259941,82.6400044 280.939945,83.3999968 280.299941,84.04 C279.659938,84.6800032 278.899946,85 278.019941,85 L265.539941,85 C264.339935,85 263.299946,84.700003 262.419941,84.1 Z" id="Path"></path>
                    <path d="M297.020059,84.04 C296.380055,83.3999968 296.060059,82.6400044 296.060059,81.76 L296.060059,4.24 C296.060059,3.3599956 296.380055,2.6000032 297.020059,1.96 C297.660062,1.3199968 298.420054,1 299.300059,1 L315.020059,1 C315.900063,1 316.660055,1.3199968 317.300059,1.96 C317.940062,2.6000032 318.260059,3.3599956 318.260059,4.24 L318.260059,81.76 C318.260059,82.6400044 317.940062,83.3999968 317.300059,84.04 C316.660055,84.6800032 315.900063,85 315.020059,85 L299.300059,85 C298.420054,85 297.660062,84.6800032 297.020059,84.04 Z" id="Path"></path>
                    <path d="M354.96,52.36 L389.28,52.36 C390.160004,52.36 390.919997,52.0400032 391.56,51.4 C392.200003,50.7599968 392.52,50.0000044 392.52,49.12 L392.52,36.4 C392.52,35.5199956 392.200003,34.7600032 391.56,34.12 C390.919997,33.4799968 390.160004,33.16 389.28,33.16 L354.96,33.16 L354.96,20.2 L391.92,20.2 C392.800004,20.2 393.559997,19.8800032 394.2,19.24 C394.840003,18.5999968 395.16,17.8400044 395.16,16.96 L395.16,4.24 C395.16,3.3599956 394.840003,2.6000032 394.2,1.96 C393.559997,1.3199968 392.800004,1 391.92,1 L336,1 C335.119996,1 334.360003,1.3199968 333.72,1.96 C333.079997,2.6000032 332.76,3.3599956 332.76,4.24 L332.76,81.76 C332.76,82.6400044 333.079997,83.3999968 333.72,84.04 C334.360003,84.6800032 335.119996,85 336,85 L392.88,85 C393.760004,85 394.519997,84.6800032 395.16,84.04 C395.800003,83.3999968 396.12,82.6400044 396.12,81.76 L396.12,69.04 C396.12,68.1599956 395.800003,67.4000032 395.16,66.76 C394.519997,66.1199968 393.760004,65.8 392.88,65.8 L354.96,65.8 L354.96,52.36 Z" id="Path"></path>
                    <path d="M468.500044,66.76 C469.140047,67.4000032 469.460044,68.1599956 469.460044,69.04 L469.460044,81.76 C469.460044,82.6400044 469.140047,83.3999968 468.500044,84.04 C467.860041,84.6800032 467.100048,85 466.220044,85 L410.660044,85 C409.78004,85 409.020047,84.6800032 408.380044,84.04 C407.740041,83.3999968 407.420044,82.6400044 407.420044,81.76 L407.420044,4.24 C407.420044,3.3599956 407.740041,2.6000032 408.380044,1.96 C409.020047,1.3199968 409.78004,1 410.660044,1 L426.380044,1 C427.260048,1 428.020041,1.3199968 428.660044,1.96 C429.300047,2.6000032 429.620044,3.3599956 429.620044,4.24 L429.620044,65.8 L466.220044,65.8 C467.100048,65.8 467.860041,66.1199968 468.500044,66.76 Z" id="Path"></path>
                    <path d="M556.739951,80.56 C557.059953,81.360004 557.219951,81.959998 557.219951,82.36 C557.219951,83.0800036 556.959954,83.6999974 556.439951,84.22 C555.919949,84.7400026 555.299955,85 554.579951,85 L539.459951,85 C538.099944,85 537.039955,84.700003 536.279951,84.1 C535.519947,83.499997 535.019952,82.800004 534.779951,82 L531.419951,72.04 L499.499951,72.04 L496.139951,82 C495.89995,82.800004 495.399955,83.499997 494.639951,84.1 C493.879947,84.700003 492.819958,85 491.459951,85 L476.339951,85 C475.619948,85 474.999954,84.7400026 474.479951,84.22 C473.959949,83.6999974 473.699951,83.0800036 473.699951,82.36 C473.699951,81.959998 473.85995,81.360004 474.179951,80.56 L500.339951,4.96 C500.739953,3.8399944 501.379947,2.9000038 502.259951,2.14 C503.139956,1.3799962 504.299944,1 505.739951,1 L525.179951,1 C526.619958,1 527.779947,1.3799962 528.659951,2.14 C529.539956,2.9000038 530.179949,3.8399944 530.579951,4.96 L556.739951,80.56 Z M525.179951,53.44 L515.459951,24.64 L505.739951,53.44 L525.179951,53.44 Z" id="Combined-Shape"></path>
                    <path d="M155.819976,176.74 C152.61996,181.500024 148.300003,185.099988 142.859976,187.54 C137.419948,189.980012 131.420008,191.2 124.859976,191.2 C118.059942,191.2 111.960003,190.040012 106.559976,187.72 C101.159949,185.399988 96.919991,182.080022 93.8399756,177.76 C90.7599602,173.439978 89.179976,168.480028 89.0999756,162.88 C89.0999756,162.159996 89.359973,161.540003 89.8799756,161.02 C90.3999782,160.499997 91.019972,160.24 91.7399756,160.24 L107.099976,160.24 C108.539983,160.24 109.519973,160.459998 110.039976,160.9 C110.559978,161.340002 111.059973,162.279993 111.539976,163.72 C112.49998,166.520014 114.019965,168.599993 116.099976,169.96 C118.179986,171.320007 121.099957,172 124.859976,172 C129.339998,172 132.739964,170.860011 135.059976,168.58 C137.379987,166.299989 138.539976,163.000022 138.539976,158.68 L138.539976,125.2 L97.4999756,125.2 C96.6199712,125.2 95.8599788,124.880003 95.2199756,124.24 C94.5799724,123.599997 94.2599756,122.840004 94.2599756,121.96 L94.2599756,109.24 C94.2599756,108.359996 94.5799724,107.600003 95.2199756,106.96 C95.8599788,106.319997 96.6199712,106 97.4999756,106 L157.379976,106 C158.25998,106 159.019972,106.319997 159.659976,106.96 C160.299979,107.600003 160.619976,108.359996 160.619976,109.24 L160.619976,159.4 C160.619976,166.200034 159.019992,171.979976 155.819976,176.74 Z" id="Path"></path>
                    <path d="M245,106.96 C245.640003,107.600003 245.96,108.359996 245.96,109.24 L245.96,157.12 C245.96,164.320036 244.440015,170.479974 241.4,175.6 C238.359985,180.720026 234.100027,184.599987 228.62,187.24 C223.139973,189.880013 216.760036,191.2 209.48,191.2 C202.119963,191.2 195.700027,189.880013 190.22,187.24 C184.739973,184.599987 180.500015,180.720026 177.5,175.6 C174.499985,170.479974 173,164.320036 173,157.12 L173,109.24 C173,108.359996 173.319997,107.600003 173.96,106.96 C174.600003,106.319997 175.359996,106 176.24,106 L191.96,106 C192.840004,106 193.599997,106.319997 194.24,106.96 C194.880003,107.600003 195.2,108.359996 195.2,109.24 L195.2,156.64 C195.2,161.520024 196.419988,165.299987 198.86,167.98 C201.300012,170.660013 204.839977,172 209.48,172 C214.120023,172 217.659988,170.660013 220.1,167.98 C222.540012,165.299987 223.76,161.520024 223.76,156.64 L223.76,109.24 C223.76,108.359996 224.079997,107.600003 224.72,106.96 C225.360003,106.319997 226.119996,106 227,106 L242.72,106 C243.600004,106 244.359997,106.319997 245,106.96 Z" id="Path"></path>
                    <path d="M331.88,148.12 C331.88,149.400006 331.800001,152.199978 331.64,156.52 C331.399999,163.080033 329.700016,168.879975 326.54,173.92 C323.379984,178.960025 319.040028,182.899986 313.52,185.74 C307.999972,188.580014 301.600036,190 294.32,190 L261.92,190 C261.039996,190 260.280003,189.680003 259.64,189.04 C258.999997,188.399997 258.68,187.640004 258.68,186.76 L258.68,109.24 C258.68,108.359996 258.999997,107.600003 259.64,106.96 C260.280003,106.319997 261.039996,106 261.92,106 L293.72,106 C301.000036,106 307.459972,107.419986 313.1,110.26 C318.740028,113.100014 323.179984,117.059975 326.42,122.14 C329.660016,127.220025 331.399999,132.999968 331.64,139.48 C331.800001,143.960022 331.88,146.839994 331.88,148.12 Z M280.88,125.2 L280.88,170.8 L293.72,170.8 C303.80005,170.8 309.039998,166.200046 309.44,157 C309.600001,152.359977 309.68,149.320007 309.68,147.88 C309.68,146.279992 309.600001,143.320022 309.44,139 C309.199999,134.439977 307.700014,131.000012 304.94,128.68 C302.179986,126.359988 298.240026,125.2 293.12,125.2 L280.88,125.2 Z" id="Combined-Shape"></path>
                    <path d="M345.19999,189.04 C344.559987,188.399997 344.23999,187.640004 344.23999,186.76 L344.23999,109.24 C344.23999,108.359996 344.559987,107.600003 345.19999,106.96 C345.839993,106.319997 346.599986,106 347.47999,106 L363.19999,106 C364.079995,106 364.839987,106.319997 365.47999,106.96 C366.119993,107.600003 366.43999,108.359996 366.43999,109.24 L366.43999,186.76 C366.43999,187.640004 366.119993,188.399997 365.47999,189.04 C364.839987,189.680003 364.079995,190 363.19999,190 L347.47999,190 C346.599986,190 345.839993,189.680003 345.19999,189.04 Z" id="Path"></path>
                    <path d="M404.880044,168.16 C407.240056,170.720013 410.940019,172 415.980044,172 C420.780068,172 424.260033,171.080009 426.420044,169.24 C428.580055,167.399991 430.10004,165.160013 430.980044,162.52 C431.460046,161.159993 431.940042,160.240002 432.420044,159.76 C432.900046,159.279998 433.780038,159.04 435.060044,159.04 L450.780044,159.04 C451.500048,159.04 452.120041,159.299997 452.640044,159.82 C453.160047,160.340003 453.420044,160.959996 453.420044,161.68 C453.340044,167.040027 451.640061,171.979977 448.320044,176.5 C445.000027,181.020023 440.500072,184.599987 434.820044,187.24 C429.140016,189.880013 422.860078,191.2 415.980044,191.2 C408.540007,191.2 402.060072,189.740015 396.540044,186.82 C391.020016,183.899985 386.740059,179.980025 383.700044,175.06 C380.660029,170.139975 378.980046,164.68003 378.660044,158.68 C378.500043,154.839981 378.420044,151.680012 378.420044,149.2 C378.420044,146.239985 378.500043,142.280025 378.660044,137.32 C378.900045,131.31997 380.540029,125.860025 383.580044,120.94 C386.620059,116.019975 390.920016,112.100015 396.480044,109.18 C402.040072,106.259985 408.540007,104.8 415.980044,104.8 C422.860078,104.8 429.140016,106.119987 434.820044,108.76 C440.500072,111.400013 445.000027,114.979977 448.320044,119.5 C451.640061,124.020023 453.340044,128.959973 453.420044,134.32 C453.420044,135.040004 453.160047,135.659997 452.640044,136.18 C452.120041,136.700003 451.500048,136.96 450.780044,136.96 L435.060044,136.96 C433.780038,136.96 432.900046,136.720002 432.420044,136.24 C431.940042,135.759998 431.460046,134.840007 430.980044,133.48 C430.10004,130.839987 428.580055,128.600009 426.420044,126.76 C424.260033,124.919991 420.780068,124 415.980044,124 C410.940019,124 407.240056,125.279987 404.880044,127.84 C402.520032,130.400013 401.180046,133.759979 400.860044,137.92 C400.700043,140.640014 400.620044,143.99998 400.620044,148 C400.620044,151.840019 400.700043,155.199986 400.860044,158.08 C401.180046,162.240021 402.520032,165.599987 404.880044,168.16 Z" id="Path"></path>
                    <path d="M464.640054,189.04 C464.000051,188.399997 463.680054,187.640004 463.680054,186.76 L463.680054,109.24 C463.680054,108.359996 464.000051,107.600003 464.640054,106.96 C465.280057,106.319997 466.040049,106 466.920054,106 L482.640054,106 C483.520058,106 484.280051,106.319997 484.920054,106.96 C485.560057,107.600003 485.880054,108.359996 485.880054,109.24 L485.880054,186.76 C485.880054,187.640004 485.560057,188.399997 484.920054,189.04 C484.280051,189.680003 483.520058,190 482.640054,190 L466.920054,190 C466.040049,190 465.280057,189.680003 464.640054,189.04 Z" id="Path"></path>
                    <path d="M574.639976,185.56 C574.959977,186.360004 575.119976,186.959998 575.119976,187.36 C575.119976,188.080004 574.859978,188.699997 574.339976,189.22 C573.819973,189.740003 573.199979,190 572.479976,190 L557.359976,190 C555.999969,190 554.939979,189.700003 554.179976,189.1 C553.419972,188.499997 552.919977,187.800004 552.679976,187 L549.319976,177.04 L517.399976,177.04 L514.039976,187 C513.799974,187.800004 513.299979,188.499997 512.539976,189.1 C511.779972,189.700003 510.719982,190 509.359976,190 L494.239976,190 C493.519972,190 492.899978,189.740003 492.379976,189.22 C491.859973,188.699997 491.599976,188.080004 491.599976,187.36 C491.599976,186.959998 491.759974,186.360004 492.079976,185.56 L518.239976,109.96 C518.639978,108.839994 519.279971,107.900004 520.159976,107.14 C521.03998,106.379996 522.199968,106 523.639976,106 L543.079976,106 C544.519983,106 545.679971,106.379996 546.559976,107.14 C547.43998,107.900004 548.079974,108.839994 548.479976,109.96 L574.639976,185.56 Z M543.079976,158.44 L533.359976,129.64 L523.639976,158.44 L543.079976,158.44 Z" id="Combined-Shape"></path>
                    <path d="M641.919967,171.76 C642.55997,172.400003 642.879967,173.159996 642.879967,174.04 L642.879967,186.76 C642.879967,187.640004 642.55997,188.399997 641.919967,189.04 C641.279964,189.680003 640.519971,190 639.639967,190 L584.079966,190 C583.199961,190 582.439969,189.680003 581.799966,189.04 C581.159963,188.399997 580.839966,187.640004 580.839966,186.76 L580.839966,109.24 C580.839966,108.359996 581.159963,107.600003 581.799966,106.96 C582.439969,106.319997 583.199961,106 584.079966,106 L599.799966,106 C600.679971,106 601.439963,106.319997 602.079966,106.96 C602.719969,107.600003 603.039966,108.359996 603.039966,109.24 L603.039966,170.8 L639.639967,170.8 C640.519971,170.8 641.279964,171.119997 641.919967,171.76 Z" id="Path"></path>
                </g>
            </g>
        </g>
    </g>
</svg>